<svg width="40" height="40" fill="none" xmlns="http://www.w3.org/2000/svg"><path d="M20 27.059a1.18 1.18 0 01-1.177-1.177c0-4.529-3.706-8.235-8.235-8.235a1.18 1.18 0 01-1.176-1.176c0-.647.529-1.177 1.176-1.177a10.582 10.582 0 0110.588 10.588A1.18 1.18 0 0120 27.06z" fill="url(#paint0_linear)"/><path d="M30.588 16.47a1.18 1.18 0 01-1.176 1.177 8.21 8.21 0 00-6.765 3.559 12.042 12.042 0 00-1.176-2.294 10.49 10.49 0 017.94-3.618c.648 0 1.177.53 1.177 1.177z" fill="url(#paint1_linear)"/><path d="M20 40C8.97 40 0 31.03 0 20S8.97 0 20 0s20 8.97 20 20-8.97 20-20 20zm0-37.647C10.265 2.353 2.353 10.265 2.353 20S10.265 37.647 20 37.647 37.647 29.735 37.647 20 29.735 2.353 20 2.353z" fill="url(#paint2_linear)"/><defs><linearGradient id="paint0_linear" x1="15.294" y1="15.294" x2="15.294" y2="27.059" gradientUnits="userSpaceOnUse"><stop stop-color="#BC9CFF"/><stop offset="1" stop-color="#8BA4F9"/></linearGradient><linearGradient id="paint1_linear" x1="26.029" y1="15.294" x2="26.029" y2="21.206" gradientUnits="userSpaceOnUse"><stop stop-color="#6FCF97"/><stop offset="1" stop-color="#66D2EA"/></linearGradient><linearGradient id="paint2_linear" x1="20" y1="0" x2="20" y2="40" gradientUnits="userSpaceOnUse"><stop stop-color="#BC9CFF"/><stop offset="1" stop-color="#8BA4F9"/></linearGradient></defs></svg>