<?xml version="1.0" standalone="no"?>
<!DOCTYPE svg PUBLIC "-//W3C//DTD SVG 20010904//EN"
 "http://www.w3.org/TR/2001/REC-SVG-20010904/DTD/svg10.dtd">
<svg version="1.0" xmlns="http://www.w3.org/2000/svg"
 width="700.000000pt" height="700.000000pt" viewBox="0 0 700.000000 700.000000"
 preserveAspectRatio="xMidYMid meet">
<metadata>
Created by potrace 1.11, written by Peter Selinger 2001-2013
</metadata>
<g transform="translate(0.000000,700.000000) scale(0.100000,-0.100000)"
fill="#000000" stroke="none">
<path d="M3278 6996 c-1 -2 -39 -6 -83 -10 -89 -7 -144 -13 -225 -26 -30 -5
-73 -12 -95 -15 -23 -3 -50 -7 -60 -10 -11 -3 -49 -12 -85 -20 -36 -9 -69 -17
-75 -18 -5 -2 -26 -7 -45 -11 -49 -11 -176 -51 -294 -93 -773 -274 -1453 -848
-1863 -1573 -156 -276 -284 -597 -349 -870 -50 -214 -72 -345 -91 -550 -16
-165 -9 -570 12 -714 3 -17 7 -49 9 -71 10 -83 18 -131 26 -165 5 -19 12 -48
14 -65 53 -294 197 -679 372 -992 205 -365 465 -680 810 -978 228 -197 603
-424 907 -549 160 -66 433 -153 571 -182 97 -21 215 -41 276 -49 25 -3 56 -7
69 -10 163 -31 695 -26 908 9 21 4 52 8 68 10 70 9 209 39 332 71 1059 281
1921 1032 2344 2043 50 118 124 333 150 437 20 78 24 91 34 138 13 56 55 298
61 352 4 33 9 76 11 95 8 70 10 517 3 595 -15 159 -21 210 -25 225 -2 8 -7 35
-10 60 -8 60 -40 213 -70 330 -71 280 -207 608 -356 861 -54 93 -167 269 -178
279 -4 3 -33 41 -66 85 -32 44 -69 91 -81 105 -12 14 -41 48 -64 75 -126 149
-341 353 -490 464 -41 31 -77 58 -80 62 -3 3 -27 21 -55 39 -27 19 -51 37 -53
42 -2 4 -9 8 -16 8 -7 0 -21 9 -31 20 -10 11 -22 20 -26 20 -4 0 -43 22 -86
49 -347 215 -864 405 -1243 456 -19 3 -46 7 -60 10 -13 2 -52 7 -86 11 -33 3
-74 8 -90 10 -33 5 -540 14 -546 10z m505 -420 c26 -3 68 -8 95 -11 87 -10
236 -37 312 -55 41 -11 86 -21 100 -23 66 -12 401 -131 468 -166 9 -5 71 -36
138 -69 220 -110 421 -243 624 -417 83 -71 312 -308 381 -395 393 -493 621
-1059 676 -1675 14 -159 8 -530 -11 -630 -2 -11 -7 -46 -11 -79 -9 -78 -12
-92 -41 -226 -109 -490 -340 -951 -667 -1335 -74 -86 -271 -282 -347 -346 -36
-30 -67 -56 -70 -59 -8 -9 -152 -114 -200 -147 -163 -111 -527 -303 -572 -303
-8 0 -18 -4 -24 -9 -14 -15 -267 -97 -399 -129 -103 -26 -193 -43 -355 -67
-180 -26 -602 -26 -762 0 -13 2 -41 6 -63 10 -372 54 -715 171 -1055 357 -167
92 -372 235 -525 368 -87 74 -304 300 -376 390 -88 109 -207 282 -268 388 -49
85 -171 327 -171 340 0 4 -9 27 -20 50 -24 50 -100 275 -129 382 -21 80 -55
253 -66 333 -4 27 -8 57 -10 67 -26 134 -26 556 0 760 35 282 127 618 232 850
114 253 234 454 392 660 89 115 115 145 266 295 122 122 172 168 270 245 22
17 48 38 58 46 38 31 225 153 312 203 233 134 499 243 750 307 112 29 110 29
220 49 155 28 169 30 310 41 50 4 91 8 93 9 6 5 398 -3 445 -9z"/>
<path d="M1825 4320 c-234 -35 -231 -378 3 -405 20 -2 80 -7 132 -10 474 -29
927 -320 1157 -745 68 -127 131 -301 149 -418 3 -20 7 -39 9 -43 4 -5 12 -93
19 -210 7 -107 47 -174 122 -205 113 -47 245 11 277 124 16 54 11 243 -9 345
-2 12 -7 38 -10 57 -3 19 -13 62 -21 95 -8 33 -16 65 -17 70 -9 49 -69 202
-116 300 -59 123 -127 234 -209 340 -70 91 -246 263 -341 333 -47 34 -89 65
-95 69 -27 22 -160 95 -235 131 -198 93 -423 152 -631 167 -52 4 -105 8 -119
9 -14 1 -43 -1 -65 -4z"/>
<path d="M5108 4325 c-2 -2 -46 -5 -98 -9 -344 -21 -687 -149 -965 -359 -103
-79 -160 -130 -253 -229 l-34 -36 55 -93 c52 -90 97 -179 131 -261 8 -21 19
-38 23 -38 4 1 25 24 45 53 137 190 392 379 632 466 118 43 154 53 264 70 112
17 134 20 207 22 147 3 235 82 235 209 0 109 -78 191 -192 202 -26 3 -49 4
-50 3z"/>
</g>
</svg>
