<svg width="22" height="22" fill="none" xmlns="http://www.w3.org/2000/svg"><path d="M7.203 7.203C8.266 6.141 9.547 5.61 11.047 5.61s2.765.532 3.797 1.594C15.906 8.234 16.438 9.5 16.438 11s-.532 2.781-1.594 3.844c-1.031 1.031-2.297 1.547-3.797 1.547s-2.781-.516-3.844-1.547C6.172 13.78 5.656 12.5 5.656 11s.516-2.766 1.547-3.797zm1.36 6.281a3.386 3.386 0 002.484 1.032c.969 0 1.797-.344 2.484-1.032A3.386 3.386 0 0014.562 11c0-.969-.343-1.797-1.03-2.484a3.386 3.386 0 00-2.485-1.032c-.969 0-1.797.344-2.485 1.032A3.386 3.386 0 007.532 11c0 .969.343 1.797 1.03 2.484zm8.953-8.953c.25.219.375.5.375.844s-.125.64-.375.89c-.22.25-.5.376-.844.376s-.64-.125-.89-.375a1.217 1.217 0 01-.376-.891c0-.344.125-.625.375-.844.25-.25.547-.375.89-.375.345 0 .626.125.845.375zM21.5 6.688c.031.843.047 2.28.047 4.312 0 2.031-.016 3.469-.047 4.313-.094 1.906-.672 3.39-1.734 4.453-1.032 1.03-2.5 1.578-4.407 1.64-.843.063-2.28.094-4.312.094-2.031 0-3.469-.031-4.313-.094-1.906-.093-3.375-.656-4.406-1.687a4.524 4.524 0 01-.984-1.313c-.25-.5-.438-.984-.563-1.453a8.448 8.448 0 01-.14-1.64C.578 14.469.547 13.03.547 11c0-2.031.031-3.484.094-4.36.093-1.874.656-3.327 1.687-4.359C3.36 1.22 4.828.641 6.734.547 7.578.516 9.016.5 11.047.5c2.031 0 3.469.016 4.312.047 1.907.094 3.375.672 4.407 1.734 1.062 1.031 1.64 2.5 1.734 4.406zm-2.25 10.5c.094-.25.172-.563.234-.938.063-.406.11-.875.141-1.406.031-.563.047-1.016.047-1.36V8.516c0-.344-.016-.782-.047-1.313a13.252 13.252 0 00-.14-1.406 5.075 5.075 0 00-.235-.984c-.375-.97-1.047-1.641-2.016-2.016a5.08 5.08 0 00-.984-.235 13.36 13.36 0 00-1.406-.14 23.159 23.159 0 00-1.313-.047H8.562c-.343 0-.796.016-1.359.047-.531.031-1 .078-1.406.14a5.128 5.128 0 00-.938.235c-.968.375-1.64 1.047-2.015 2.015a5.08 5.08 0 00-.235.985 13.36 13.36 0 00-.14 1.406 23.42 23.42 0 00-.047 1.313v5.625c.031.468.062.875.094 1.218a12.434 12.434 0 00.328 1.829c.406.968 1.078 1.64 2.015 2.015.25.094.563.172.938.235.406.062.875.109 1.406.14.563.031 1 .047 1.313.047h5.014c.344 0 .781-.016 1.313-.047a13.254 13.254 0 001.406-.14c.406-.063.734-.141.984-.235.97-.406 1.641-1.078 2.016-2.015z" fill="url(#instagram)"/><defs><linearGradient id="instagram" x1="11" y1="1" x2="11" y2="25" gradientUnits="userSpaceOnUse"><stop stop-color="#BC9CFF"/><stop offset="1" stop-color="#8BA4F9"/></linearGradient></defs></svg>
